<?xml version="1.0" encoding="UTF-8"?>
<svg id="Layer_2" data-name="Layer 2" xmlns="http://www.w3.org/2000/svg" viewBox="0 0 88.32 88.47">
  <defs>
    <style>
      .cls-1 {
        fill: #fff;
      }
    </style>
  </defs>
  <g id="Layer_1-2" data-name="Layer 1">
    <path class="cls-1" d="M44.08,0C20.85,0,1.81,17.92,0,40.69l23.71,9.8c2.01-1.37,4.44-2.18,7.05-2.18.23,0,.47,0,.7.02l10.54-15.28v-.22c0-9.2,7.48-16.68,16.68-16.68s16.68,7.48,16.68,16.68-7.48,16.68-16.68,16.68c-.13,0-.25,0-.38,0l-15.04,10.73c0,.19.01.39.01.59,0,6.91-5.62,12.52-12.52,12.52-6.06,0-11.13-4.33-12.28-10.06L1.52,56.29c5.25,18.57,22.31,32.18,42.56,32.18,24.43,0,44.24-19.81,44.24-44.24S68.51,0,44.08,0"/>
    <path class="cls-1" d="M27.72,67.12l-5.43-2.25c.96,2,2.63,3.68,4.84,4.61,4.78,1.99,10.3-.28,12.29-5.06.97-2.31.97-4.87.01-7.19-.96-2.32-2.76-4.13-5.07-5.1-2.3-.96-4.76-.92-6.93-.1l5.61,2.32c3.53,1.47,5.19,5.52,3.72,9.05-1.47,3.53-5.52,5.2-9.05,3.72"/>
    <path class="cls-1" d="M69.8,32.84c0-6.13-4.99-11.12-11.12-11.12s-11.12,4.99-11.12,11.12,4.99,11.11,11.12,11.11,11.12-4.99,11.12-11.11M50.35,32.82c0-4.61,3.74-8.35,8.35-8.35s8.35,3.74,8.35,8.35-3.74,8.35-8.35,8.35-8.35-3.74-8.35-8.35"/>
  </g>
</svg>